# xmcd
#
# Track frame offsets:
#	150
#	17283
#	34718
#	53235
#	72153
#	92243
#	111660
#	129318
#	144748
#	163620
#
# Disc length: 2392 seconds
#
# Revision: 1
# Processed by: cddbd v1.4b42PL1 Copyright (c) Steve Scherf et al.
# Submitted via: audiograbber 1.80
#
DISCID=8609560a
DTITLE=Acker Bilk - Always On My Mind
DYEAR=1900
DGENRE=
TTITLE0=Always on my mind
TTITLE1=Memory
TTITLE2=Ships
TTITLE3=Hello
TTITLE4=Just once
TTITLE5=I just called to say I love you
TTITLE6=Longfellow serenade
TTITLE7=Truly
TTITLE8=One hundred ways
TTITLE9=Still
EXTD=
EXTT0=
EXTT1=
EXTT2=
EXTT3=
EXTT4=
EXTT5=
EXTT6=
EXTT7=
EXTT8=
EXTT9=
PLAYORDER=
